<?xml version="1.0" standalone="no"?>
<!DOCTYPE svg PUBLIC "-//W3C//DTD SVG 20010904//EN"
 "http://www.w3.org/TR/2001/REC-SVG-20010904/DTD/svg10.dtd">
<svg version="1.0" xmlns="http://www.w3.org/2000/svg"
 width="1280.000000pt" height="1280.000000pt" viewBox="0 0 1280.000000 1280.000000"
 preserveAspectRatio="xMidYMid meet">

<g transform="translate(0.000000,1280.000000) scale(0.100000,-0.100000)"
fill="#000000" stroke="none">
<path d="M0 6400 l0 -6400 6400 0 6400 0 0 6400 0 6400 -6400 0 -6400 0 0
-6400z m6278 3394 c-7 -6 -634 -367 -1392 -803 -878 -504 -1385 -790 -1395
-786 -33 12 -1161 667 -1161 674 1 3 891 518 1978 1143 l1977 1137 3 -677 c2
-533 -1 -679 -10 -688z m2275 196 c1055 -608 1917 -1108 1917 -1111 0 -4 -264
-158 -587 -344 -501 -287 -590 -335 -607 -326 -12 5 -635 365 -1386 799
l-1365 788 -3 683 -2 682 58 -33 c32 -18 921 -530 1975 -1138z m-1861 -1426
l288 -166 0 -429 0 -429 -162 -280 -161 -280 -119 0 -118 0 0 176 0 176 30 28
c22 21 30 37 30 63 0 111 -160 114 -163 3 -1 -32 4 -44 31 -66 l32 -26 0 -177
0 -177 -117 0 -118 0 -162 281 -163 281 0 428 0 427 288 167 c158 91 289 166
291 166 3 0 134 -75 293 -166z m-3427 -491 l120 -69 3 -1605 2 -1604 -557
-320 c-307 -175 -573 -328 -590 -338 l-33 -19 0 2280 0 2281 468 -269 c257
-147 521 -299 587 -337z m7322 -3950 c-2 -2 -266 148 -585 333 l-582 337 0
1606 0 1606 583 336 582 337 3 -2276 c1 -1251 0 -2277 -1 -2279z m-5247 3551
c179 -103 333 -194 342 -202 20 -17 328 -551 328 -569 0 -6 -57 -109 -126
-227 l-126 -216 -102 0 c-57 0 -205 3 -330 7 l-227 6 -362 211 -362 211 -3
105 c-2 58 0 209 3 336 l7 231 287 165 286 166 30 -18 c17 -10 176 -102 355
-206z m2838 31 l242 -140 -2 -338 -3 -339 -360 -209 -360 -208 -331 -1 -331 0
-113 198 c-63 108 -119 206 -126 217 -12 18 4 50 150 303 l162 282 370 214
369 213 45 -26 c25 -14 155 -89 288 -166z m-1606 -932 c88 -41 160 -113 201
-201 30 -63 32 -74 32 -177 0 -100 -3 -115 -28 -167 -129 -262 -454 -324 -662
-127 -161 152 -171 405 -24 573 45 51 107 91 184 119 37 13 73 17 140 14 76
-2 100 -8 157 -34z m-684 -657 c67 -117 122 -218 122 -223 0 -6 -72 -136 -159
-289 l-160 -279 -362 -210 c-199 -115 -365 -211 -368 -213 -4 -1 -135 71 -292
161 l-284 164 -6 134 c-4 74 -7 225 -8 336 l-1 201 368 215 367 215 330 1 330
0 123 -213z m2165 2 l367 -213 -2 -339 -3 -338 -284 -165 c-157 -90 -289 -162
-295 -159 -6 3 -172 99 -370 213 l-359 208 -163 282 -163 283 127 220 127 220
325 0 325 0 368 -212z m-1673 -488 c0 -113 -4 -180 -10 -180 -23 0 -50 -41
-50 -77 0 -73 75 -108 134 -62 20 15 26 29 26 58 0 40 -23 81 -46 81 -12 0
-14 30 -14 180 l0 180 118 0 117 -1 162 -277 163 -277 -3 -430 -2 -429 -280
-163 c-154 -89 -286 -162 -293 -163 -6 0 -139 74 -295 164 l-282 164 -3 429
-2 429 161 277 161 277 119 0 119 0 0 -180z m-1484 -1831 l1394 -801 0 -680
c0 -399 -4 -678 -9 -676 -23 8 -3951 2273 -3951 2278 0 4 1158 678 1169 679 2
1 630 -359 1397 -800z m5042 431 c293 -168 531 -309 529 -313 -2 -8 -3900
-2260 -3934 -2274 -10 -4 -13 135 -13 675 l0 679 1387 801 1387 801 57 -32
c30 -18 295 -169 587 -337z"/>
<path d="M5462 6983 c-22 -9 -44 -63 -37 -93 8 -35 33 -58 71 -66 44 -9 94 35
94 82 0 62 -66 102 -128 77z"/>
<path d="M7232 6967 c-23 -25 -29 -75 -12 -107 15 -27 64 -41 101 -28 56 20
70 107 22 144 -29 22 -86 17 -111 -9z"/>
<path d="M5459 5957 c-65 -50 -35 -151 46 -151 76 0 113 87 60 139 -27 27 -79
33 -106 12z"/>
<path d="M7236 5949 c-20 -16 -26 -29 -26 -59 0 -55 27 -85 80 -85 53 0 80 30
80 85 0 45 -35 80 -80 80 -15 0 -39 -9 -54 -21z"/>
</g>
</svg>
